<?xml version="1.0" encoding="UTF-8"?>
<svg width="512px" height="384px" viewBox="0 0 512 384" version="1.1" xmlns="http://www.w3.org/2000/svg" xmlns:xlink="http://www.w3.org/1999/xlink">
    <!-- Generator: Sketch 50.2 (55047) - http://www.bohemiancoding.com/sketch -->
    <title>email</title>
    <desc>Created with Sketch.</desc>
    <defs></defs>
    <g id="Page-1" stroke="none" stroke-width="1" fill="none" fill-rule="evenodd">
        <g id="email" fill="#000000" fill-rule="nonzero">
            <path d="M464,0 L48,0 C21.49,0 0,21.49 0,48 L0,336 C0,362.51 21.49,384 48,384 L464,384 C490.51,384 512,362.51 512,336 L512,48 C512,21.49 490.51,0 464,0 Z M464,48 L464,88.805 C441.578,107.064 405.832,135.456 329.413,195.295 C312.572,208.542 279.212,240.367 256,239.996 C232.792,240.371 199.421,208.537 182.587,195.295 C106.18,135.465 70.425,107.067 48,88.805 L48,48 L464,48 Z M48,336 L48,150.398 C70.914,168.649 103.409,194.26 152.938,233.044 C174.795,250.249 213.072,288.23 256,287.999 C298.717,288.23 336.509,250.8 359.053,233.052 C408.581,194.269 441.085,168.651 464,150.398 L464,336 L48,336 Z" id="Shape"></path>
        </g>
    </g>
</svg>