<?xml version="1.0" encoding="utf-8"?>
<!-- Generator: Adobe Illustrator 21.1.0, SVG Export Plug-In . SVG Version: 6.00 Build 0)  -->
<svg version="1.1" id="Layer_1" xmlns="http://www.w3.org/2000/svg" xmlns:xlink="http://www.w3.org/1999/xlink" x="0px" y="0px"
	 viewBox="0 0 54 54" style="enable-background:new 0 0 54 54;" xml:space="preserve">
<style type="text/css">
	.st0{fill:none;}
</style>
<g>
	<rect x="-0.2" y="0.1" class="st0" width="53.8" height="53.4"/>
	<path d="M50.8,26.8c-2.3,2.8-5.7,5.1-10.4,7c1.6,5.3,1.3,9.6-0.6,13c-1.2,2.1-2.9,3.5-5.1,4.1c-1.9,0.6-3.6,0.5-5.1-0.4
		c-1.6-0.9-2.4-2.5-2.3-4.6l0-9.1v0c-0.1,0-0.4-0.1-0.7-0.2c-0.3-0.1-0.5-0.1-0.7-0.1l0,9.4c0.1,2.1-0.7,3.6-2.3,4.6
		c-1.5,0.9-3.2,1-5.1,0.4c-2.2-0.7-3.9-2.1-5.1-4.2c-2-3.3-2.2-7.7-0.6-12.9c-4.7-1.9-8.1-4.3-10.4-7C2,26.1,2,25.5,2.3,25
		c0.4-0.5,0.9-0.5,1.7,0c0.1,0,0.2,0.1,0.3,0.2c0.1,0.1,0.2,0.2,0.3,0.2V6.1c0-1.3,0.4-2.5,1.3-3.4c0.9-0.9,1.9-1.4,3.2-1.4h35.1
		c1.2,0,2.3,0.5,3.2,1.4c0.9,0.9,1.3,2.1,1.3,3.4v19.4l0.6-0.4c0.7-0.5,1.3-0.5,1.7,0C51.3,25.5,51.3,26.1,50.8,26.8z M46.3,26.9
		V8.3c0-1.6-0.3-2.8-0.9-3.4c-0.6-0.7-1.6-1-3.1-1h-31c-1.5,0-2.6,0.3-3.1,0.9C7.6,5.4,7.3,6.6,7.3,8.3v18.8
		c0.8,0.4,1.6,0.8,2.5,1.1c0.8,0.3,1.6,0.6,2.3,0.8c0.7,0.2,1.4,0.4,2.3,0.5c0.8,0.1,1.5,0.2,2,0.3c0.5,0.1,1.1,0.1,2,0.1
		s1.4,0,1.6,0c0.3,0,0.8,0,1.6-0.1c0.8,0,1.2-0.1,1.2-0.1c1.3,0,2.1,0.2,2.7,0.8c0.1,0.1,0.2,0.2,0.3,0.3c0.5,0.5,1.1,0.9,1.7,1.4
		c0.1-1.7,1.2-2.5,3.3-2.4c0.1,0,0.4,0,1,0c0.6,0,1,0,1.2,0.1s0.6,0,1.3,0c0.6,0,1.1,0,1.5,0c0.4,0,0.9-0.1,1.5-0.1
		c0.7-0.1,1.2-0.1,1.7-0.2c0.5-0.1,1.1-0.2,1.7-0.4c0.7-0.1,1.3-0.3,1.9-0.5c0.6-0.2,1.2-0.5,1.9-0.8C45,27.6,45.6,27.3,46.3,26.9z
		 M26,21.9c0,1.5-0.6,2.9-1.8,4c-1.2,1.1-2.6,1.7-4.3,1.7c-1.7,0-3.1-0.6-4.3-1.7c-1.2-1.1-1.8-2.4-1.8-4c0-1.6,0.6-2.9,1.8-4
		c1.2-1.1,2.6-1.6,4.3-1.6c1.7,0,3.1,0.5,4.3,1.6C25.4,19,26,20.3,26,21.9z M40,21.9c0,1.5-0.6,2.9-1.8,4c-1.2,1.1-2.6,1.7-4.3,1.7
		c-1.7,0-3.1-0.6-4.3-1.7c-1.2-1.1-1.8-2.4-1.8-4c0-1.6,0.6-2.9,1.8-4c1.2-1.1,2.6-1.6,4.3-1.6c1.7,0,3.1,0.5,4.3,1.6
		C39.4,19,40,20.3,40,21.9z"/>
</g>
</svg>
