<?xml version="1.0" standalone="no"?>
<!DOCTYPE svg PUBLIC "-//W3C//DTD SVG 20010904//EN"
 "http://www.w3.org/TR/2001/REC-SVG-20010904/DTD/svg10.dtd">
<svg version="1.0" xmlns="http://www.w3.org/2000/svg"
 width="1000.000000pt" height="1000.000000pt" viewBox="0 0 1000.000000 1000.000000"
 preserveAspectRatio="xMidYMid meet">
<metadata>
Created by potrace 1.11, written by Peter Selinger 2001-2013
</metadata>
<g transform="translate(0.000000,1000.000000) scale(0.100000,-0.100000)"
fill="#000000" stroke="none">
<path d="M4709 9166 c-2 -2 -45 -7 -96 -10 -50 -4 -102 -9 -115 -11 -13 -2
-45 -6 -73 -9 -58 -7 -82 -11 -185 -31 -41 -9 -84 -17 -95 -19 -150 -29 -521
-157 -628 -217 -10 -5 -23 -7 -29 -3 -6 4 -8 3 -5 -2 3 -6 -36 -31 -86 -57
-95 -49 -148 -78 -157 -87 -3 -3 -36 -25 -75 -50 -38 -25 -72 -47 -75 -50 -3
-3 -39 -30 -80 -61 -41 -31 -86 -66 -100 -78 -109 -97 -169 -152 -203 -188
-22 -24 -49 -43 -59 -43 -10 0 -18 -5 -18 -11 0 -6 -23 -9 -60 -8 -33 1 -60 5
-60 9 0 4 -10 6 -22 5 -12 -1 -46 4 -76 11 -134 31 -338 39 -397 15 -16 -7
-32 -13 -35 -13 -3 0 -17 -9 -31 -19 -14 -10 -29 -16 -33 -12 -3 3 -6 2 -6 -4
0 -6 -15 -27 -32 -46 -45 -47 -52 -57 -68 -94 -8 -18 -18 -33 -22 -33 -4 0 -5
-7 -2 -15 4 -8 1 -15 -5 -15 -6 0 -10 -3 -10 -7 3 -20 -2 -44 -9 -40 -4 3 -7
-16 -6 -41 0 -57 -5 -74 -20 -66 -6 3 -3 -1 6 -8 17 -15 19 -33 5 -55 -6 -9
-3 -11 7 -7 12 4 16 0 16 -16 0 -21 33 -77 55 -92 5 -4 7 -8 2 -8 -4 0 19 -23
50 -52 32 -28 61 -56 65 -62 4 -6 8 -7 8 -3 0 5 21 -6 47 -25 27 -19 69 -47
96 -62 27 -16 44 -33 40 -39 -4 -7 0 -8 11 -4 13 5 33 -8 73 -49 l55 -56 -6
-66 c-9 -102 -18 -128 -38 -116 -7 4 -8 2 -4 -5 6 -9 11 -9 21 -1 10 8 12 1 7
-37 -2 -27 -8 -53 -13 -58 -4 -6 -4 -17 0 -24 5 -7 5 -27 2 -45 -4 -17 -7 -44
-6 -59 1 -15 -2 -30 -7 -33 -4 -3 -6 -10 -2 -15 3 -5 7 -21 10 -35 3 -18 1
-23 -7 -18 -7 4 -9 3 -6 -3 11 -17 16 -63 7 -63 -4 0 -11 -7 -14 -16 -5 -14
-4 -15 8 -5 12 10 15 9 13 -8 0 -11 -4 -18 -8 -15 -4 2 -11 0 -14 -6 -4 -6 -1
-9 6 -8 16 4 19 -51 5 -71 -8 -11 -8 -13 1 -8 8 5 11 -2 11 -22 -1 -18 -5 -28
-11 -24 -6 4 -7 1 -1 -8 5 -8 10 -30 11 -49 1 -19 4 -46 5 -60 2 -14 -1 -28
-7 -32 -6 -5 -5 -8 4 -8 11 0 11 -3 0 -17 -10 -11 -10 -14 -1 -9 6 4 12 2 12
-3 0 -6 -6 -11 -12 -11 -9 0 -8 -4 2 -10 12 -8 13 -11 1 -19 -9 -6 -9 -10 -2
-12 7 -3 12 -47 13 -121 2 -65 6 -118 11 -118 13 0 8 -60 -5 -60 -9 0 -10 -2
-2 -8 13 -8 27 -105 14 -97 -5 3 -12 0 -16 -6 -4 -8 -3 -9 4 -5 6 3 16 -3 23
-15 10 -20 9 -21 -7 -15 -18 6 -18 5 0 -9 14 -11 16 -15 5 -15 -12 0 -12 -2 1
-10 8 -5 12 -10 9 -10 -3 0 -3 -20 1 -45 4 -25 3 -48 -2 -51 -4 -3 -5 -11 -1
-17 5 -7 8 -23 9 -37 0 -14 3 -30 5 -35 3 -6 7 -75 8 -154 2 -110 -1 -146 -11
-152 -10 -7 -10 -9 0 -9 16 0 16 -42 0 -59 -10 -11 -10 -13 0 -7 8 5 12 -1 12
-20 0 -24 -2 -25 -17 -13 -17 13 -17 12 -2 -6 10 -13 14 -35 12 -65 -2 -25 -5
-64 -6 -88 -1 -23 -5 -42 -8 -42 -4 0 -5 -9 -2 -21 4 -12 0 -25 -8 -30 -10 -6
-10 -9 -1 -9 16 0 16 -37 0 -43 -9 -4 -10 -6 -1 -6 14 -1 7 -49 -10 -70 -9
-12 -9 -13 1 -7 8 5 12 0 12 -14 0 -13 -4 -19 -12 -14 -7 5 -8 3 -2 -7 4 -7 7
-30 5 -49 -2 -19 -5 -55 -6 -80 -2 -25 -4 -45 -5 -45 -1 0 -3 -22 -4 -50 -1
-27 -5 -56 -9 -62 -5 -7 -4 -13 1 -13 6 0 8 -9 5 -20 -3 -11 -10 -17 -17 -13
-6 4 -5 -1 3 -11 12 -14 12 -19 2 -26 -9 -5 -10 -9 -2 -14 6 -4 9 -11 6 -16
-3 -4 -6 -26 -7 -49 -1 -24 -5 -38 -11 -34 -6 4 -7 1 -2 -7 12 -19 6 -112 -8
-129 -10 -12 -9 -13 3 -6 13 7 13 6 2 -7 -7 -9 -9 -18 -4 -20 17 -6 1 -68 -17
-68 -33 0 -118 -105 -127 -158 -1 -8 -6 -21 -10 -30 -9 -21 -11 -30 -12 -65
-1 -16 -6 -25 -12 -22 -5 3 -7 0 -5 -7 10 -26 10 -118 0 -118 -6 0 -6 -3 0 -8
16 -11 19 -75 3 -66 -8 4 -10 3 -5 -2 5 -5 14 -9 20 -9 12 0 29 -54 21 -67 -3
-4 3 -5 12 -1 12 4 15 3 10 -5 -4 -7 -2 -12 5 -12 9 0 9 -3 0 -14 -10 -12 -8
-13 9 -9 13 4 26 -1 36 -13 9 -11 12 -13 8 -5 -5 10 -3 12 7 5 8 -5 19 -9 24
-9 16 0 12 -39 -5 -53 -13 -10 -12 -11 4 -5 14 4 17 2 14 -8 -3 -8 -11 -13
-17 -11 -7 1 -10 -2 -6 -8 3 -6 11 -8 16 -5 5 4 9 -4 10 -17 0 -13 1 -44 2
-70 1 -27 -2 -48 -8 -48 -6 0 -6 -3 1 -8 6 -4 11 -34 12 -67 1 -33 4 -76 6
-95 3 -19 0 -40 -6 -48 -9 -10 -8 -12 2 -10 16 4 21 -51 6 -71 -8 -11 -8 -13
2 -7 8 5 12 -1 13 -21 0 -15 2 -38 5 -51 2 -13 0 -21 -5 -17 -5 3 -13 0 -17
-6 -4 -7 -3 -9 3 -6 6 4 16 0 23 -8 9 -10 9 -15 1 -15 -6 0 -11 -5 -11 -11 0
-5 5 -7 10 -4 6 4 10 -9 10 -32 0 -21 4 -45 9 -52 6 -9 6 -22 -1 -34 -6 -12
-6 -17 0 -13 5 3 12 -4 14 -17 6 -30 -1 -49 -15 -40 -7 3 -8 2 -4 -3 5 -5 13
-9 19 -9 6 0 12 -7 13 -15 9 -54 14 -78 23 -100 5 -14 9 -37 8 -52 -1 -14 2
-24 6 -22 7 5 12 -22 12 -68 0 -9 3 -15 8 -12 4 3 9 -1 10 -8 2 -23 5 -32 15
-58 6 -14 8 -31 5 -39 -3 -9 -1 -12 6 -7 7 4 12 3 12 -3 0 -5 -5 -13 -10 -16
-6 -3 -10 -12 -9 -18 0 -9 2 -9 6 1 2 6 9 12 15 12 6 0 7 -7 4 -16 -3 -8 -2
-12 4 -9 8 5 13 -15 9 -41 0 -4 3 -10 8 -13 5 -3 17 -23 26 -43 9 -21 25 -54
34 -74 9 -20 16 -42 16 -50 0 -8 5 -14 10 -14 5 0 6 -7 3 -16 -3 -8 -2 -13 3
-10 14 9 42 -41 34 -60 -5 -13 -3 -15 7 -9 10 6 12 4 7 -9 -4 -9 -3 -15 2 -12
4 3 22 -17 40 -43 33 -52 38 -67 19 -55 -7 4 -8 3 -4 -5 4 -6 11 -9 16 -6 12
7 32 -30 22 -40 -4 -5 -2 -5 5 -1 6 3 14 2 18 -4 3 -5 0 -10 -7 -11 -7 0 -2
-4 10 -10 13 -5 26 -18 29 -29 3 -11 10 -17 17 -13 6 3 8 3 5 -1 -4 -4 4 -19
17 -33 13 -14 24 -32 24 -40 0 -8 4 -12 9 -8 11 6 77 -73 73 -87 -1 -5 2 -7 7
-3 6 3 36 -18 67 -47 31 -29 64 -61 74 -70 10 -9 28 -22 40 -28 14 -7 19 -17
16 -27 -5 -12 -4 -13 7 -5 8 7 17 9 20 5 15 -14 6 -34 -20 -44 -16 -6 -36 -17
-45 -26 -9 -8 -22 -12 -29 -7 -7 4 -10 3 -5 -4 3 -6 -2 -18 -11 -28 -40 -38
-101 -139 -98 -161 1 -13 -3 -23 -9 -23 -6 0 -4 -5 4 -10 8 -5 11 -10 6 -10
-5 0 1 -8 12 -19 12 -10 22 -24 22 -31 0 -7 3 -10 6 -7 4 4 19 -2 34 -13 16
-11 38 -20 49 -20 19 0 26 -10 22 -33 -1 -5 3 -6 9 -2 6 3 8 10 5 15 -3 5 5 7
17 4 13 -3 28 -6 33 -7 6 -2 15 -5 20 -8 6 -3 23 -6 39 -7 16 -1 36 -8 44 -15
13 -9 14 -9 8 1 -4 6 -2 12 3 12 6 0 11 -6 11 -14 0 -8 4 -17 9 -20 5 -3 8 2
7 11 -1 11 8 16 32 18 18 1 35 -2 38 -7 3 -4 15 -8 27 -7 21 0 21 1 2 9 -18 8
-18 9 -2 9 10 1 28 -4 40 -11 20 -10 21 -10 9 5 -12 14 -11 16 5 17 45 1 63 5
63 12 0 4 5 8 11 8 5 0 7 -6 3 -12 -5 -7 7 -1 25 15 18 15 39 27 46 27 8 0 19
8 24 18 9 15 12 15 22 2 9 -13 10 -12 5 2 -3 11 2 21 12 27 9 5 16 12 15 15
-6 13 -2 26 8 26 5 0 7 -5 3 -12 -4 -7 -3 -8 5 -4 12 8 -16 40 -56 66 -17 11
-17 11 0 6 10 -3 25 -6 34 -6 10 0 13 -6 9 -16 -5 -14 -4 -15 8 -5 10 8 26 9
57 2 61 -14 112 -23 127 -24 9 0 8 -5 -3 -17 -13 -14 -13 -17 0 -17 8 0 12 4
10 8 -8 12 23 19 55 12 17 -3 30 -10 30 -15 0 -5 -4 -7 -8 -4 -4 2 -8 -6 -8
-19 0 -13 4 -21 8 -19 5 3 6 10 3 15 -4 5 1 12 9 15 9 3 13 11 9 17 -3 6 -1 7
6 3 6 -4 35 -10 64 -13 29 -3 63 -12 77 -21 26 -17 73 -25 64 -11 -2 4 -13 6
-24 4 -11 -2 -22 1 -26 6 -4 7 9 8 38 3 23 -3 48 -7 55 -7 7 0 15 -7 18 -15 3
-10 0 -12 -10 -8 -8 3 -15 1 -15 -4 0 -5 11 -9 25 -8 16 2 21 6 15 12 -16 16
-11 30 5 16 8 -7 15 -9 15 -5 0 4 8 1 17 -6 11 -9 14 -10 9 -2 -5 10 7 11 51
7 32 -3 60 -10 61 -15 2 -5 8 -9 13 -9 6 0 7 5 3 11 -4 8 -1 8 12 2 11 -5 32
-8 47 -7 21 2 30 -3 37 -19 l9 -22 0 24 c1 18 5 22 19 16 9 -4 36 -7 60 -7 23
0 42 -4 42 -9 0 -5 5 -9 11 -9 5 0 8 4 5 8 -3 5 1 9 9 9 8 0 12 -4 9 -9 -6 -9
25 -6 43 5 6 4 14 3 18 -3 3 -5 -1 -10 -9 -10 -9 0 -16 -5 -16 -10 0 -6 11 -5
28 3 15 8 38 13 52 11 14 -2 51 -4 83 -4 31 -1 57 -6 57 -10 0 -5 -6 -8 -12
-6 -7 1 -10 1 -5 -1 4 -3 5 -8 3 -12 -3 -4 1 -8 9 -8 8 0 14 3 13 6 -2 19 3
31 13 31 6 0 9 -6 6 -14 -4 -10 0 -12 15 -8 14 3 19 1 15 -6 -8 -12 19 -10 30
3 4 4 3 6 -2 2 -6 -3 -19 1 -29 9 -18 13 -16 14 17 11 20 -2 40 -7 44 -12 5
-4 1 -4 -7 0 -13 8 -13 6 1 -15 9 -13 22 -26 30 -28 8 -3 6 1 -4 10 -11 8 -16
20 -11 31 7 19 20 22 29 7 5 -8 11 -7 21 1 17 14 19 -2 2 -21 -7 -8 -1 -4 15
9 30 27 37 19 10 -13 -14 -16 -14 -18 -2 -8 9 6 20 8 24 4 5 -4 4 -1 0 7 -6
11 -4 13 10 7 14 -5 16 -4 7 7 -9 10 -8 14 3 14 8 0 15 -3 15 -6 0 -4 8 -11
18 -18 15 -9 19 -8 19 3 0 7 -4 11 -8 8 -4 -2 -10 0 -14 5 -3 6 22 9 65 7 43
-1 70 2 70 9 0 5 11 -2 24 -17 18 -20 26 -23 29 -13 6 14 23 15 45 1 11 -7 12
-4 3 12 -17 32 -13 37 11 16 14 -12 18 -14 13 -4 -4 8 -5 12 0 8 4 -4 17 -3
29 3 20 10 20 9 2 -5 -17 -14 -17 -15 9 -12 15 2 30 7 33 13 8 11 42 13 42 2
0 -3 -10 -9 -22 -12 -12 -4 -20 -9 -16 -12 8 -9 58 17 52 26 -3 5 5 9 18 10
25 1 60 4 151 13 45 5 57 3 52 -6 -4 -7 1 -4 9 6 10 13 16 15 16 7 0 -10 3
-11 13 -2 8 6 23 9 35 6 12 -2 24 0 27 5 3 4 16 7 30 5 14 -1 25 2 25 8 0 6 7
2 15 -9 10 -13 13 -14 10 -3 -4 10 0 16 10 16 10 0 14 -6 10 -16 -3 -11 0 -10
12 4 10 11 28 21 40 21 19 1 22 -2 17 -22 -4 -15 -2 -24 6 -24 6 0 8 4 5 10
-3 5 -1 19 5 31 9 15 17 19 33 14 12 -3 28 -7 35 -7 6 -1 12 -5 12 -10 0 -4 5
-8 11 -8 8 0 8 5 -1 15 -7 8 -17 12 -23 8 -6 -3 -7 -1 -3 5 10 16 36 15 36 0
0 -9 3 -9 8 -2 14 21 45 25 63 8 11 -10 19 -13 19 -9 0 5 7 0 16 -11 14 -18
15 -18 4 4 -6 12 -15 20 -20 17 -5 -3 -11 -1 -14 4 -10 16 14 23 31 9 12 -9
15 -9 9 0 -4 6 -2 13 3 13 26 3 30 4 37 11 12 12 21 9 28 -8 4 -12 1 -14 -14
-9 -11 4 -20 2 -20 -3 0 -5 15 -9 32 -8 25 1 33 6 35 21 3 19 3 19 -5 1 -7
-15 -11 -17 -17 -7 -8 15 13 33 28 24 5 -3 14 1 19 8 8 11 9 10 4 -3 -3 -10
-1 -20 5 -23 5 -4 7 -10 5 -14 -3 -3 11 -17 30 -30 18 -13 31 -27 28 -32 -3
-5 6 -9 20 -9 15 0 26 -6 26 -13 0 -7 7 -22 16 -33 15 -18 15 -18 5 3 -16 31
-13 41 4 19 8 -11 15 -14 15 -8 0 16 15 15 32 -1 7 -8 19 -12 26 -9 13 4 35
-15 45 -38 5 -13 6 -13 6 1 1 8 -5 21 -11 28 -11 11 -9 12 7 4 23 -10 127 -10
199 1 34 5 46 4 41 -3 -3 -6 -10 -9 -14 -6 -5 2 -17 -2 -27 -11 -18 -14 -18
-15 4 -4 12 6 22 7 22 3 0 -4 5 -2 11 4 6 6 18 9 25 6 8 -3 14 0 14 7 0 6 -4
8 -10 5 -6 -3 -10 -1 -10 4 0 6 5 12 10 12 6 1 16 2 23 3 6 1 18 -2 25 -7 9
-7 11 -5 6 8 -5 12 -4 16 4 11 6 -3 13 -2 17 4 4 6 11 8 16 5 5 -4 9 -1 9 4 0
15 27 14 33 -1 3 -7 6 -3 6 9 1 12 6 25 13 29 6 4 8 3 5 -3 -3 -5 0 -10 7 -10
7 0 13 7 12 16 -1 9 5 15 12 13 6 -1 11 1 11 5 -1 5 -1 10 1 13 5 16 4 80 -2
80 -5 0 -8 5 -8 11 0 13 -56 96 -85 125 -34 35 -91 74 -98 67 -4 -3 -7 -1 -7
5 0 7 3 12 8 12 4 0 31 21 60 46 30 26 57 42 63 38 7 -4 9 -3 5 4 -9 14 45 64
63 57 8 -3 11 0 8 9 -4 9 6 24 23 37 16 13 26 28 23 33 -3 5 -2 7 3 4 5 -3 25
16 44 43 28 38 39 47 55 42 17 -5 18 -4 7 9 -10 12 -8 20 13 44 46 54 50 60
64 86 8 15 18 25 23 22 4 -3 8 4 8 15 0 11 4 23 10 26 5 3 17 21 26 40 9 19
23 35 30 35 8 0 14 5 14 11 0 5 -4 8 -9 5 -4 -3 -1 10 8 29 9 22 21 33 29 30
7 -2 10 0 7 5 -9 15 17 80 31 80 7 0 16 4 19 10 4 6 -1 7 -10 3 -15 -5 -15 -3
-3 18 7 13 17 27 23 31 5 4 6 10 3 14 -4 4 -2 16 4 28 7 11 11 24 10 28 -1 5
2 8 6 8 8 0 10 7 14 50 1 11 6 20 10 20 4 0 8 9 8 20 0 11 4 20 9 20 5 0 8 8
7 17 -1 12 6 17 19 16 18 -1 19 -1 3 11 -16 12 -16 14 -1 36 10 13 11 20 4 15
-10 -6 -11 -3 -3 11 10 20 27 94 24 107 -1 4 2 7 7 7 5 0 8 6 8 13 0 6 3 31 7
55 7 36 11 41 24 30 13 -11 14 -11 2 8 -9 14 -10 33 -5 60 5 21 7 45 6 53 -1
7 2 10 7 7 6 -4 8 3 4 16 -4 16 -2 19 9 13 10 -6 11 -5 3 4 -7 8 -8 28 -2 64
5 29 10 59 10 67 0 8 6 21 12 29 6 9 7 12 1 9 -6 -4 -11 2 -11 13 0 10 3 19 6
19 3 0 5 21 5 48 0 58 4 74 18 65 6 -4 7 -1 1 8 -12 20 -5 191 9 208 9 12 9
13 0 7 -9 -5 -12 0 -11 18 1 15 6 26 11 26 6 0 6 5 1 13 -11 15 -11 38 0 56 7
10 5 12 -3 6 -7 -4 -5 5 5 21 18 27 18 28 1 15 -17 -13 -17 -13 -5 13 7 16 14
23 16 17 2 -6 9 -11 15 -11 5 0 7 3 4 7 -8 7 34 39 45 35 4 -1 10 9 14 22 3
14 12 27 19 29 7 3 15 22 19 41 5 24 13 36 24 37 10 0 12 3 5 6 -15 6 -17 49
-3 58 6 4 7 13 1 24 -6 10 -6 23 -1 31 5 8 5 19 0 25 -4 5 -10 30 -13 55 -2
25 -9 58 -16 73 -6 16 -9 33 -5 38 3 5 2 9 -3 9 -4 0 -20 24 -35 53 -19 36
-41 60 -71 78 l-43 26 0 86 c1 47 -2 83 -6 80 -5 -2 -8 1 -8 6 0 6 6 11 13 11
9 0 9 2 0 8 -7 4 -14 46 -18 102 -11 176 -13 199 -20 209 -3 6 0 11 7 11 8 0
9 3 3 8 -10 7 -18 80 -19 174 -1 27 -3 48 -6 48 -3 0 -6 37 -7 83 -1 45 -6
108 -10 139 -7 38 -6 61 1 68 7 7 6 10 -3 10 -11 0 -11 3 -1 15 7 8 8 15 3 15
-6 0 -11 33 -12 73 -2 39 -3 91 -4 115 -1 23 3 42 8 42 7 0 7 3 0 8 -5 4 -9
14 -9 22 1 8 2 23 3 33 1 12 6 16 14 11 10 -6 10 -4 0 7 -7 7 -13 32 -13 55 0
25 5 44 13 47 9 4 8 6 -2 6 -11 1 -11 4 0 18 10 11 10 14 2 9 -14 -8 -18 6 -6
18 4 3 7 24 7 45 1 21 7 45 14 54 9 10 10 17 2 22 -14 9 -13 72 3 78 8 4 8 6
-2 6 -11 1 -10 5 5 16 13 11 14 14 4 13 -9 -2 -13 3 -11 12 4 17 8 72 12 152
1 34 6 55 12 51 6 -3 6 0 1 10 -13 22 -5 129 8 120 7 -4 8 -1 3 7 -5 8 -8 27
-8 42 1 15 2 55 2 89 1 45 4 58 14 53 9 -6 9 -4 -1 8 -10 13 -10 17 0 21 7 3
8 6 2 6 -9 1 -10 21 -1 151 1 19 6 41 11 49 6 10 5 12 -2 7 -8 -5 -12 1 -12
14 0 14 4 19 13 14 7 -5 6 0 -3 11 -16 20 -16 21 8 50 13 15 14 17 1 8 -14
-11 -15 0 -15 102 1 63 -2 115 -6 115 -11 0 -5 23 7 32 6 5 5 8 -3 8 -10 0
-10 5 -1 21 6 12 7 19 1 15 -6 -3 -12 28 -17 77 -8 97 -7 84 -16 125 -4 19 -3
32 3 32 5 0 7 4 4 9 -8 13 4 42 15 35 5 -3 6 1 4 8 -3 8 13 31 35 53 22 21 40
35 40 30 0 -4 8 0 19 9 46 42 136 93 147 85 8 -7 11 -4 10 8 -1 14 6 18 30 18
17 0 31 5 31 12 0 6 -7 9 -16 6 -9 -3 -6 2 7 11 12 10 27 14 34 10 6 -4 8 -3
5 3 -8 12 36 56 46 46 4 -3 7 1 7 11 0 9 4 15 8 12 4 -2 14 9 21 25 7 16 17
27 22 24 5 -4 6 1 3 9 -3 9 -1 16 5 16 6 0 10 5 8 12 -1 7 3 12 10 13 6 0 15
4 20 9 5 5 3 6 -4 2 -15 -8 -19 29 -4 38 8 5 7 64 -2 178 -1 14 -5 24 -9 22
-4 -3 -11 8 -14 23 -4 15 -15 42 -25 60 -10 17 -16 34 -13 37 2 3 1 4 -2 1 -4
-2 -19 13 -34 33 -34 48 -114 100 -179 117 -56 15 -181 17 -238 5 -21 -5 -58
-11 -83 -14 -25 -4 -63 -11 -85 -16 -22 -5 -69 -13 -105 -16 -81 -7 -98 1
-198 98 -43 41 -102 94 -132 118 -30 25 -57 48 -60 51 -3 4 -36 30 -75 59 -59
45 -108 78 -281 187 -10 7 -81 44 -156 81 -76 38 -134 73 -130 77 4 5 2 5 -5
2 -6 -4 -24 -2 -40 4 -15 7 -32 13 -38 14 -5 2 -30 12 -55 23 -25 11 -92 35
-150 52 -58 17 -116 36 -130 41 -31 11 -181 45 -234 53 -21 4 -41 8 -45 10 -3
2 -28 7 -56 11 -27 4 -59 9 -70 11 -46 7 -94 14 -150 20 -33 3 -73 8 -90 11
-34 6 -641 14 -646 9z m3011 -3400 c0 -3 -4 -8 -10 -11 -5 -3 -10 -1 -10 4 0
6 5 11 10 11 6 0 10 -2 10 -4z m-2350 -4898 c0 -6 -3 -8 -7 -5 -3 4 -12 2 -18
-3 -9 -7 -14 -7 -18 3 -3 8 4 14 19 15 13 1 24 -3 24 -10z"/>
<path d="M1786 7682 c-3 -5 1 -9 9 -9 8 0 12 4 9 9 -3 4 -7 8 -9 8 -2 0 -6 -4
-9 -8z"/>
<path d="M8185 7660 c-3 -6 1 -7 9 -4 18 7 21 14 7 14 -6 0 -13 -4 -16 -10z"/>
<path d="M1821 7657 c2 -1 15 -11 29 -22 l25 -20 -19 23 c-11 12 -24 22 -29
22 -6 0 -8 -1 -6 -3z"/>
<path d="M1827 7619 c7 -7 15 -10 18 -7 3 3 -2 9 -12 12 -14 6 -15 5 -6 -5z"/>
<path d="M8130 7610 c-9 -6 -11 -10 -3 -10 7 0 10 -7 6 -17 -3 -10 -3 -15 1
-12 6 6 18 49 13 49 -1 0 -9 -5 -17 -10z"/>
<path d="M1890 7579 c0 -5 5 -7 10 -4 6 3 10 8 10 11 0 2 -4 4 -10 4 -5 0 -10
-5 -10 -11z"/>
<path d="M1905 7560 c-3 -6 1 -7 9 -4 18 7 21 14 7 14 -6 0 -13 -4 -16 -10z"/>
<path d="M1956 7547 c3 -10 9 -15 12 -12 3 3 0 11 -7 18 -10 9 -11 8 -5 -6z"/>
<path d="M8095 7551 c-3 -5 -2 -12 3 -15 5 -3 9 1 9 9 0 17 -3 19 -12 6z"/>
<path d="M1926 7542 c-3 -5 1 -9 9 -9 8 0 12 4 9 9 -3 4 -7 8 -9 8 -2 0 -6 -4
-9 -8z"/>
<path d="M2000 7516 c0 -2 7 -7 16 -10 8 -3 12 -2 9 4 -6 10 -25 14 -25 6z"/>
<path d="M7975 7500 c3 -5 8 -10 11 -10 2 0 4 5 4 10 0 6 -5 10 -11 10 -5 0
-7 -4 -4 -10z"/>
<path d="M2026 7482 c-2 -4 4 -8 14 -8 10 0 16 4 14 8 -3 4 -9 8 -14 8 -5 0
-11 -4 -14 -8z"/>
<path d="M7921 7476 c-9 -10 -8 -15 3 -19 11 -4 13 -1 9 10 -5 12 -3 14 7 8 9
-5 11 -4 6 3 -9 15 -11 15 -25 -2z"/>
<path d="M2070 7471 c0 -6 4 -13 10 -16 6 -3 7 1 4 9 -7 18 -14 21 -14 7z"/>
<path d="M7975 7471 c-3 -5 -2 -12 3 -15 5 -3 9 1 9 9 0 17 -3 19 -12 6z"/>
<path d="M2107 7445 c3 -8 9 -12 14 -9 12 7 11 11 -5 17 -10 4 -13 1 -9 -8z"/>
<path d="M7880 7440 c-12 -7 -10 -9 8 -7 12 0 22 5 22 9 0 11 -12 10 -30 -2z"/>
<path d="M2160 7410 c6 -11 13 -20 16 -20 2 0 0 9 -6 20 -6 11 -13 20 -16 20
-2 0 0 -9 6 -20z"/>
<path d="M7853 7415 c0 -8 4 -12 9 -9 5 3 6 10 3 15 -9 13 -12 11 -12 -6z"/>
<path d="M7813 7405 c-3 -9 -3 -18 -1 -21 3 -3 8 4 11 16 6 23 -1 27 -10 5z"/>
<path d="M7895 7409 c-4 -6 -5 -12 -2 -15 2 -3 7 2 10 11 7 17 1 20 -8 4z"/>
<path d="M2190 7379 c0 -5 5 -7 12 -3 8 5 9 1 4 -12 -5 -14 -4 -16 5 -7 6 6 8
16 5 22 -9 14 -26 14 -26 0z"/>
<path d="M7840 7380 c-8 -5 -10 -10 -5 -10 6 0 17 5 25 10 8 5 11 10 5 10 -5
0 -17 -5 -25 -10z"/>
<path d="M7777 7366 c-4 -11 -5 -21 -2 -24 3 -3 5 0 5 8 0 9 3 10 13 1 10 -8
14 -7 14 4 0 8 -4 12 -8 9 -4 -2 -9 1 -11 8 -3 7 -7 5 -11 -6z"/>
<path d="M2226 7343 c-6 -14 -5 -15 5 -6 7 7 10 15 7 18 -3 3 -9 -2 -12 -12z"/>
<path d="M7759 7313 c-13 -16 -12 -17 4 -4 9 7 17 15 17 17 0 8 -8 3 -21 -13z"/>
<path d="M2215 7289 c-4 -6 -5 -12 -2 -15 2 -3 7 2 10 11 7 17 1 20 -8 4z"/>
<path d="M7750 7263 c0 -6 8 -17 18 -24 16 -13 16 -13 2 6 -8 11 -16 22 -17
24 -2 2 -3 0 -3 -6z"/>
<path d="M2187 6599 c7 -7 15 -10 18 -7 3 3 -2 9 -12 12 -14 6 -15 5 -6 -5z"/>
<path d="M2186 6318 c3 -5 10 -6 15 -3 13 9 11 12 -6 12 -8 0 -12 -4 -9 -9z"/>
<path d="M2235 6160 c-3 -5 -1 -10 4 -10 6 0 11 5 11 10 0 6 -2 10 -4 10 -3 0
-8 -4 -11 -10z"/>
<path d="M2273 5175 c0 -8 4 -12 9 -9 5 3 6 10 3 15 -9 13 -12 11 -12 -6z"/>
<path d="M7710 5079 c0 -5 5 -7 10 -4 6 3 10 8 10 11 0 2 -4 4 -10 4 -5 0 -10
-5 -10 -11z"/>
<path d="M2236 4953 c-6 -14 -5 -15 5 -6 7 7 10 15 7 18 -3 3 -9 -2 -12 -12z"/>
<path d="M7946 3598 c3 -5 10 -6 15 -3 13 9 11 12 -6 12 -8 0 -12 -4 -9 -9z"/>
<path d="M7935 3551 c-3 -5 -2 -12 3 -15 5 -3 9 1 9 9 0 17 -3 19 -12 6z"/>
<path d="M7856 3485 c-3 -8 -1 -15 4 -15 6 0 10 7 10 15 0 8 -2 15 -4 15 -2 0
-6 -7 -10 -15z"/>
<path d="M2110 3475 c5 -7 6 -16 2 -21 -4 -5 -3 -5 2 -1 15 12 15 34 0 34 -9
0 -11 -4 -4 -12z"/>
<path d="M2177 3473 c-4 -3 -7 -11 -7 -17 0 -6 5 -5 12 2 6 6 9 14 7 17 -3 3
-9 2 -12 -2z"/>
<path d="M7810 3379 c0 -5 5 -7 10 -4 6 3 10 8 10 11 0 2 -4 4 -10 4 -5 0 -10
-5 -10 -11z"/>
<path d="M2156 3282 c-3 -5 1 -9 9 -9 8 0 12 4 9 9 -3 4 -7 8 -9 8 -2 0 -6 -4
-9 -8z"/>
<path d="M7770 2860 c0 -5 5 -10 11 -10 5 0 7 5 4 10 -3 6 -8 10 -11 10 -2 0
-4 -4 -4 -10z"/>
<path d="M7730 2660 c0 -5 5 -10 11 -10 5 0 7 5 4 10 -3 6 -8 10 -11 10 -2 0
-4 -4 -4 -10z"/>
<path d="M2256 2573 c-6 -14 -5 -15 5 -6 7 7 10 15 7 18 -3 3 -9 -2 -12 -12z"/>
<path d="M7730 2559 c0 -5 5 -7 10 -4 6 3 10 8 10 11 0 2 -4 4 -10 4 -5 0 -10
-5 -10 -11z"/>
<path d="M2270 2516 c0 -2 8 -10 18 -17 15 -13 16 -12 3 4 -13 16 -21 21 -21
13z"/>
<path d="M7695 2479 c-4 -6 -5 -12 -2 -15 2 -3 7 2 10 11 7 17 1 20 -8 4z"/>
<path d="M2290 2460 c0 -5 5 -10 11 -10 5 0 7 5 4 10 -3 6 -8 10 -11 10 -2 0
-4 -4 -4 -10z"/>
<path d="M2335 2280 c-3 -5 -1 -10 4 -10 6 0 11 5 11 10 0 6 -2 10 -4 10 -3 0
-8 -4 -11 -10z"/>
<path d="M7610 2179 c0 -5 5 -7 10 -4 6 3 10 8 10 11 0 2 -4 4 -10 4 -5 0 -10
-5 -10 -11z"/>
<path d="M2350 2176 c0 -2 8 -10 18 -17 15 -13 16 -12 3 4 -13 16 -21 21 -21
13z"/>
<path d="M2429 2043 c-13 -16 -12 -17 4 -4 9 7 17 15 17 17 0 8 -8 3 -21 -13z"/>
<path d="M2455 1999 c-6 -8 -4 -10 5 -4 10 6 12 4 6 -11 -6 -15 -5 -17 5 -6 9
9 10 15 2 23 -8 8 -13 7 -18 -2z"/>
<path d="M7525 2000 c-3 -6 1 -7 9 -4 18 7 21 14 7 14 -6 0 -13 -4 -16 -10z"/>
<path d="M2511 1893 c7 -10 15 -20 16 -22 2 -2 3 3 3 11 0 9 -7 19 -16 22 -15
6 -15 4 -3 -11z"/>
<path d="M7486 1898 c3 -5 10 -6 15 -3 13 9 11 12 -6 12 -8 0 -12 -4 -9 -9z"/>
<path d="M7440 1835 c-7 -8 -9 -15 -5 -15 4 0 1 -8 -6 -17 -13 -16 -12 -17 3
-4 10 7 15 17 13 22 -3 4 3 12 12 18 10 6 13 11 7 11 -6 0 -17 -7 -24 -15z"/>
<path d="M2550 1816 c0 -2 8 -10 18 -17 15 -13 16 -12 3 4 -13 16 -21 21 -21
13z"/>
<path d="M2596 1767 c3 -10 9 -15 12 -12 3 3 0 11 -7 18 -10 9 -11 8 -5 -6z"/>
<path d="M2573 1745 c0 -8 4 -12 9 -9 5 3 6 10 3 15 -9 13 -12 11 -12 -6z"/>
<path d="M7372 1731 c-11 -7 -11 -9 0 -14 9 -3 15 1 15 9 0 8 -1 14 -1 14 -1
0 -7 -4 -14 -9z"/>
<path d="M7330 1680 c0 -5 5 -10 10 -10 6 0 10 5 10 10 0 6 -4 10 -10 10 -5 0
-10 -4 -10 -10z"/>
<path d="M7315 1649 c-4 -6 -5 -12 -2 -15 2 -3 7 2 10 11 7 17 1 20 -8 4z"/>
<path d="M7251 1571 c-9 -6 -10 -11 -2 -15 6 -4 8 -13 5 -19 -4 -7 -3 -9 1 -4
7 5 16 48 11 47 -1 0 -7 -4 -15 -9z"/>
<path d="M2730 1562 c0 -5 7 -9 15 -9 8 0 12 4 9 9 -3 4 -9 8 -15 8 -5 0 -9
-4 -9 -8z"/>
<path d="M2775 1509 c-4 -6 -5 -12 -2 -15 2 -3 7 2 10 11 7 17 1 20 -8 4z"/>
<path d="M2796 1502 c-3 -5 1 -9 9 -9 8 0 12 4 9 9 -3 4 -7 8 -9 8 -2 0 -6 -4
-9 -8z"/>
<path d="M2830 1441 c0 -6 4 -13 10 -16 6 -3 7 1 4 9 -7 18 -14 21 -14 7z"/>
<path d="M2877 1411 c14 -17 33 -20 33 -5 0 3 -4 3 -9 0 -5 -3 -11 1 -15 9 -3
8 -10 15 -16 15 -5 0 -2 -9 7 -19z"/>
<path d="M2923 1379 c9 -6 15 -14 12 -20 -4 -5 -1 -9 4 -9 6 0 11 4 11 8 0 12
-22 32 -34 32 -6 0 -3 -5 7 -11z"/>
<path d="M7110 1360 c0 -5 5 -10 11 -10 5 0 7 5 4 10 -3 6 -8 10 -11 10 -2 0
-4 -4 -4 -10z"/>
<path d="M2980 1320 c-9 -6 -10 -10 -3 -10 6 0 15 5 18 10 8 12 4 12 -15 0z"/>
<path d="M7002 1318 c-15 -15 -15 -28 -1 -28 5 0 8 4 4 9 -3 6 3 14 12 20 10
6 13 11 8 11 -6 0 -16 -5 -23 -12z"/>
<path d="M7030 1301 c0 -6 4 -13 10 -16 6 -3 7 1 4 9 -7 18 -14 21 -14 7z"/>
<path d="M2998 1293 c7 -3 16 -2 19 1 4 3 -2 6 -13 5 -11 0 -14 -3 -6 -6z"/>
<path d="M6959 1283 c-13 -16 -12 -17 4 -4 16 13 21 21 13 21 -2 0 -10 -8 -17
-17z"/>
<path d="M6975 1271 c-3 -5 -2 -12 3 -15 5 -3 9 1 9 9 0 17 -3 19 -12 6z"/>
<path d="M3025 1239 c-3 -4 2 -6 10 -5 21 3 28 13 10 13 -9 0 -18 -4 -20 -8z"/>
<path d="M3630 999 c0 -5 5 -7 10 -4 6 3 10 8 10 11 0 2 -4 4 -10 4 -5 0 -10
-5 -10 -11z"/>
<path d="M3690 991 c0 -11 14 -15 39 -11 13 2 13 -1 1 -17 -14 -17 -14 -17 5
-2 11 9 27 14 35 11 8 -2 12 -1 7 3 -4 5 -20 9 -35 10 -15 1 -33 5 -40 9 -7 4
-12 2 -12 -3z"/>
<path d="M3656 977 c3 -10 9 -15 12 -12 3 3 0 11 -7 18 -10 9 -11 8 -5 -6z"/>
<path d="M6277 965 c-4 -8 -3 -16 1 -19 4 -3 9 4 9 15 2 23 -3 25 -10 4z"/>
<path d="M3820 963 c0 -6 5 -15 10 -18 6 -4 8 -10 5 -15 -3 -5 -1 -11 4 -14
12 -8 8 14 -7 39 -6 11 -12 15 -12 8z"/>
<path d="M6188 954 c-6 -22 12 -28 29 -9 4 4 3 5 -4 1 -7 -3 -13 1 -15 11 -3
15 -5 15 -10 -3z"/>
<path d="M6366 962 c-3 -5 1 -9 9 -9 8 0 15 4 15 9 0 4 -4 8 -9 8 -6 0 -12 -4
-15 -8z"/>
<path d="M3610 939 c0 -5 5 -7 10 -4 6 3 10 8 10 11 0 2 -4 4 -10 4 -5 0 -10
-5 -10 -11z"/>
<path d="M3911 932 c-8 -15 -5 -18 19 -17 15 0 26 4 23 8 -3 5 -12 6 -20 3
-11 -4 -13 -2 -9 9 8 21 -1 19 -13 -3z"/>
<path d="M6416 933 c-4 -9 -3 -20 1 -24 4 -4 9 3 9 17 2 28 -1 31 -10 7z"/>
<path d="M4005 930 c-3 -6 1 -7 9 -4 18 7 21 14 7 14 -6 0 -13 -4 -16 -10z"/>
<path d="M6003 928 c-20 -27 -21 -34 -3 -34 13 0 16 4 10 11 -6 7 -5 16 2 23
7 7 9 12 6 12 -3 0 -10 -6 -15 -12z"/>
<path d="M2839 913 c-13 -16 -12 -17 4 -4 16 13 21 21 13 21 -2 0 -10 -8 -17
-17z"/>
<path d="M3799 913 c-13 -16 -12 -17 4 -4 9 7 17 15 17 17 0 8 -8 3 -21 -13z"/>
<path d="M6070 923 c8 -3 20 -10 26 -14 6 -5 11 -4 11 4 0 7 -12 13 -26 14
-14 1 -19 -1 -11 -4z"/>
<path d="M4030 910 c8 -5 20 -10 25 -10 6 0 3 5 -5 10 -8 5 -19 10 -25 10 -5
0 -3 -5 5 -10z"/>
<path d="M5894 909 c1 -7 12 -13 23 -14 14 -1 19 3 16 12 -4 10 -9 11 -18 3
-9 -8 -15 -8 -18 0 -3 6 -5 6 -3 -1z"/>
<path d="M4260 896 c7 -7 13 -7 20 0 6 6 3 10 -10 10 -13 0 -16 -4 -10 -10z"/>
<path d="M5810 900 c0 -5 5 -10 11 -10 5 0 7 5 4 10 -3 6 -8 10 -11 10 -2 0
-4 -4 -4 -10z"/>
<path d="M5870 901 c0 -6 4 -13 10 -16 6 -3 7 1 4 9 -7 18 -14 21 -14 7z"/>
<path d="M4116 887 c3 -10 9 -15 12 -12 3 3 0 11 -7 18 -10 9 -11 8 -5 -6z"/>
<path d="M4297 893 c-10 -10 -8 -23 4 -23 5 0 7 5 3 11 -4 8 1 9 17 4 19 -5
21 -4 9 4 -18 13 -24 13 -33 4z"/>
<path d="M5700 890 c-13 -8 -13 -11 -1 -22 9 -8 12 -9 7 -1 -3 6 2 16 11 22
10 6 14 10 8 11 -5 0 -17 -5 -25 -10z"/>
<path d="M5741 884 c0 -11 3 -14 6 -6 3 7 2 16 -1 19 -3 4 -6 -2 -5 -13z"/>
<path d="M2875 880 c3 -5 8 -10 11 -10 2 0 4 5 4 10 0 6 -5 10 -11 10 -5 0 -7
-4 -4 -10z"/>
<path d="M2906 879 c2 -4 13 -7 24 -6 23 2 17 10 -10 12 -10 1 -17 -2 -14 -6z"/>
<path d="M3553 873 c0 -9 4 -10 14 -2 7 6 13 12 13 14 0 1 -6 2 -13 2 -8 0
-14 -6 -14 -14z"/>
<path d="M4210 878 c0 -6 3 -8 7 -5 3 4 11 2 18 -3 8 -7 12 -6 12 3 0 7 -9 14
-19 14 -10 1 -18 -3 -18 -9z"/>
<path d="M4400 870 c-6 -12 -5 -17 5 -17 7 0 11 7 7 15 -3 10 -1 13 6 8 6 -3
13 -3 16 2 3 5 -2 9 -10 9 -8 0 -19 -8 -24 -17z"/>
<path d="M4486 877 c3 -9 9 -17 13 -18 3 0 14 -2 23 -4 10 -2 21 2 25 7 3 6 1
8 -5 4 -5 -3 -13 0 -15 6 -4 10 -6 9 -6 -1 -1 -11 -6 -10 -21 4 -18 17 -20 17
-14 2z"/>
<path d="M5571 873 c-16 -14 -18 -22 -11 -33 9 -13 10 -13 8 2 -2 9 6 24 17
32 11 9 17 16 14 16 -4 0 -16 -8 -28 -17z"/>
<path d="M5626 882 c-3 -5 1 -9 9 -9 8 0 12 4 9 9 -3 4 -7 8 -9 8 -2 0 -6 -4
-9 -8z"/>
<path d="M5780 886 c0 -2 7 -7 16 -10 8 -3 12 -2 9 4 -6 10 -25 14 -25 6z"/>
<path d="M5835 879 c-4 -6 -4 -13 -1 -16 3 -4 6 -1 6 6 0 8 6 11 16 7 8 -3 12
-2 9 4 -8 13 -22 13 -30 -1z"/>
<path d="M6990 868 c-10 -21 -10 -21 3 -6 8 10 17 15 20 11 4 -3 7 -1 7 5 0
20 -19 13 -30 -10z"/>
<path d="M4354 860 c0 -13 4 -16 10 -10 7 7 7 13 0 20 -6 6 -10 3 -10 -10z"/>
<path d="M5909 863 c-13 -16 -12 -17 4 -4 16 13 21 21 13 21 -2 0 -10 -8 -17
-17z"/>
<path d="M6557 867 c-3 -8 1 -14 8 -14 7 0 11 6 8 14 -3 7 -6 13 -8 13 -2 0
-5 -6 -8 -13z"/>
<path d="M3480 850 c-7 -14 -7 -20 0 -20 5 0 10 7 10 16 0 9 5 12 12 8 7 -4 8
-3 4 4 -10 16 -14 15 -26 -8z"/>
<path d="M4435 861 c-3 -5 -2 -12 3 -15 5 -3 9 1 9 9 0 17 -3 19 -12 6z"/>
<path d="M4744 850 c0 -13 4 -16 10 -10 7 7 7 13 0 20 -6 6 -10 3 -10 -10z"/>
<path d="M6946 862 c-3 -5 1 -9 9 -9 8 0 12 4 9 9 -3 4 -7 8 -9 8 -2 0 -6 -4
-9 -8z"/>
<path d="M2999 853 c0 -5 -2 -15 -4 -24 -1 -9 0 -22 4 -28 4 -7 8 4 8 24 0 30
-6 50 -8 28z"/>
<path d="M4295 851 c-3 -5 -2 -12 3 -15 5 -3 9 1 9 9 0 17 -3 19 -12 6z"/>
<path d="M4565 850 c-16 -7 -17 -9 -3 -9 9 -1 20 4 23 9 7 11 7 11 -20 0z"/>
<path d="M4601 837 c-13 -21 -12 -21 5 -5 10 10 16 20 13 22 -3 3 -11 -5 -18
-17z"/>
<path d="M4635 851 c-3 -5 -2 -12 3 -15 5 -3 9 1 9 9 0 17 -3 19 -12 6z"/>
<path d="M4700 850 c-8 -5 -10 -10 -5 -10 6 0 17 5 25 10 8 5 11 10 5 10 -5 0
-17 -5 -25 -10z"/>
<path d="M4787 847 c-3 -8 1 -14 9 -14 7 0 11 4 8 8 -2 4 2 10 8 12 8 4 7 6
-3 6 -9 1 -19 -5 -22 -12z"/>
<path d="M5021 844 c0 -11 3 -14 6 -6 3 7 2 16 -1 19 -3 4 -6 -2 -5 -13z"/>
<path d="M5199 858 c-6 -20 -6 -39 0 -42 4 -3 7 6 7 20 0 20 -4 32 -7 22z"/>
<path d="M5231 851 c-10 -7 -7 -9 12 -8 14 1 23 5 20 10 -6 9 -15 9 -32 -2z"/>
<path d="M5606 845 c-11 -8 -15 -15 -9 -15 6 0 16 7 23 15 16 19 11 19 -14 0z"/>
<path d="M5650 856 c0 -2 8 -10 18 -17 15 -13 16 -12 3 4 -13 16 -21 21 -21
13z"/>
<path d="M2915 840 c-3 -5 -1 -10 4 -10 6 0 11 5 11 10 0 6 -2 10 -4 10 -3 0
-8 -4 -11 -10z"/>
<path d="M3050 842 c0 -7 5 -12 11 -12 5 0 8 -4 5 -8 -2 -4 4 -8 14 -9 23 -2
35 13 19 23 -8 4 -9 3 -5 -4 11 -17 -5 -14 -26 5 -11 9 -18 11 -18 5z"/>
<path d="M4826 842 c-3 -5 1 -9 9 -9 8 0 12 4 9 9 -3 4 -7 8 -9 8 -2 0 -6 -4
-9 -8z"/>
<path d="M5290 840 c0 -5 5 -10 10 -10 6 0 10 5 10 10 0 6 -4 10 -10 10 -5 0
-10 -4 -10 -10z"/>
<path d="M6590 842 c0 -5 7 -9 15 -9 8 0 15 4 15 9 0 4 -7 8 -15 8 -8 0 -15
-4 -15 -8z"/>
<path d="M6721 836 c-21 -12 -22 -14 -5 -20 10 -4 15 -4 11 0 -4 4 1 13 11 20
22 17 14 17 -17 0z"/>
<path d="M6770 835 c0 -8 2 -15 4 -15 2 0 6 7 10 15 3 8 1 15 -4 15 -6 0 -10
-7 -10 -15z"/>
<path d="M6815 840 c3 -5 8 -10 11 -10 2 0 4 5 4 10 0 6 -5 10 -11 10 -5 0 -7
-4 -4 -10z"/>
<path d="M5370 831 c0 -6 4 -13 10 -16 6 -3 7 1 4 9 -7 18 -14 21 -14 7z"/>
<path d="M3130 820 c0 -5 5 -10 11 -10 5 0 7 5 4 10 -3 6 -8 10 -11 10 -2 0
-4 -4 -4 -10z"/>
<path d="M3393 811 c0 -11 5 -18 9 -15 4 3 5 11 1 19 -7 21 -12 19 -10 -4z"/>
<path d="M4900 820 c-9 -6 -10 -10 -3 -10 6 0 15 5 18 10 8 12 4 12 -15 0z"/>
<path d="M5115 820 c-3 -6 1 -7 9 -4 18 7 21 14 7 14 -6 0 -13 -4 -16 -10z"/>
<path d="M5226 818 c3 -4 11 -5 19 -1 21 7 19 12 -4 10 -11 0 -18 -5 -15 -9z"/>
<path d="M6750 823 c0 -6 8 -17 18 -24 16 -13 16 -13 2 6 -8 11 -16 22 -17 24
-2 2 -3 0 -3 -6z"/>
<path d="M6790 819 c0 -5 5 -7 10 -4 6 3 10 8 10 11 0 2 -4 4 -10 4 -5 0 -10
-5 -10 -11z"/>
<path d="M3252 807 c-17 -22 -24 -42 -7 -22 9 11 23 19 31 17 18 -4 18 4 0 11
-8 3 -19 0 -24 -6z"/>
<path d="M6809 803 c-13 -16 -12 -17 4 -4 9 7 17 15 17 17 0 8 -8 3 -21 -13z"/>
<path d="M3110 800 c0 -5 5 -10 11 -10 5 0 7 5 4 10 -3 6 -8 10 -11 10 -2 0
-4 -4 -4 -10z"/>
<path d="M3354 796 c1 -8 5 -18 8 -22 4 -3 5 1 4 10 -1 8 -5 18 -8 22 -4 3 -5
-1 -4 -10z"/>
<path d="M3195 780 c2 -27 10 -33 12 -10 1 11 -2 22 -6 24 -4 3 -7 -4 -6 -14z"/>
<path d="M3317 789 c7 -7 15 -10 18 -7 3 3 -2 9 -12 12 -14 6 -15 5 -6 -5z"/>
<path d="M3265 779 c-3 -4 2 -6 10 -5 21 3 28 13 10 13 -9 0 -18 -4 -20 -8z"/>
<path d="M3153 765 c0 -8 4 -12 9 -9 5 3 6 10 3 15 -9 13 -12 11 -12 -6z"/>
</g>
</svg>
